<?xml version="1.0" encoding="UTF-8" standalone="no"?>
<!DOCTYPE svg PUBLIC "-//W3C//DTD SVG 1.1//EN"
 "http://www.w3.org/Graphics/SVG/1.1/DTD/svg11.dtd">
<!-- Generated by graphviz version 2.43.0 (0)
 -->
<!-- Title: %3 Pages: 1 -->
<svg width="294pt" height="620pt"
 viewBox="0.00 0.00 293.93 620.00" xmlns="http://www.w3.org/2000/svg" xmlns:xlink="http://www.w3.org/1999/xlink">
<g id="graph0" class="graph" transform="scale(1 1) rotate(0) translate(4 616)">
<title>%3</title>
<polygon fill="white" stroke="transparent" points="-4,4 -4,-616 289.93,-616 289.93,4 -4,4"/>
<!-- inp -->
<g id="node1" class="node">
<title>inp</title>
<ellipse fill="none" stroke="black" cx="159.84" cy="-594" rx="126.18" ry="18"/>
<text text-anchor="middle" x="159.84" y="-590.3" font-family="Times,serif" font-size="14.00">Input (X), e.g. 150k dims</text>
</g>
<!-- bb -->
<g id="node2" class="node">
<title>bb</title>
<polygon fill="none" stroke="black" points="271.84,-540 47.84,-540 47.84,-504 271.84,-504 271.84,-540"/>
<text text-anchor="middle" x="159.84" y="-518.3" font-family="Times,serif" font-size="14.00">Backbone (Convolutions etc.)</text>
</g>
<!-- inp&#45;&gt;bb -->
<g id="edge1" class="edge">
<title>inp&#45;&gt;bb</title>
<path fill="none" stroke="black" d="M159.84,-575.7C159.84,-567.98 159.84,-558.71 159.84,-550.11"/>
<polygon fill="black" stroke="black" points="163.34,-550.1 159.84,-540.1 156.34,-550.1 163.34,-550.1"/>
</g>
<!-- feat -->
<g id="node3" class="node">
<title>feat</title>
<ellipse fill="none" stroke="black" cx="159.84" cy="-450" rx="114.28" ry="18"/>
<text text-anchor="middle" x="159.84" y="-446.3" font-family="Times,serif" font-size="14.00">Features, e.g. 1k dims</text>
</g>
<!-- bb&#45;&gt;feat -->
<g id="edge2" class="edge">
<title>bb&#45;&gt;feat</title>
<path fill="none" stroke="black" d="M159.84,-503.7C159.84,-495.98 159.84,-486.71 159.84,-478.11"/>
<polygon fill="black" stroke="black" points="163.34,-478.1 159.84,-468.1 156.34,-478.1 163.34,-478.1"/>
</g>
<!-- head -->
<g id="node4" class="node">
<title>head</title>
<polygon fill="none" stroke="black" points="232.84,-396 86.84,-396 86.84,-360 232.84,-360 232.84,-396"/>
<text text-anchor="middle" x="159.84" y="-374.3" font-family="Times,serif" font-size="14.00">Head (e.g. Linear)</text>
</g>
<!-- feat&#45;&gt;head -->
<g id="edge3" class="edge">
<title>feat&#45;&gt;head</title>
<path fill="none" stroke="black" d="M159.84,-431.7C159.84,-423.98 159.84,-414.71 159.84,-406.11"/>
<polygon fill="black" stroke="black" points="163.34,-406.1 159.84,-396.1 156.34,-406.1 163.34,-406.1"/>
</g>
<!-- score -->
<g id="node5" class="node">
<title>score</title>
<ellipse fill="none" stroke="black" cx="159.84" cy="-306" rx="113.98" ry="18"/>
<text text-anchor="middle" x="159.84" y="-302.3" font-family="Times,serif" font-size="14.00">Scores, e.g. 2&#45;10 dims</text>
</g>
<!-- head&#45;&gt;score -->
<g id="edge4" class="edge">
<title>head&#45;&gt;score</title>
<path fill="none" stroke="black" d="M159.84,-359.7C159.84,-351.98 159.84,-342.71 159.84,-334.11"/>
<polygon fill="black" stroke="black" points="163.34,-334.1 159.84,-324.1 156.34,-334.1 163.34,-334.1"/>
</g>
<!-- softmax -->
<g id="node6" class="node">
<title>softmax</title>
<polygon fill="none" stroke="black" points="164.84,-252 88.84,-252 88.84,-216 164.84,-216 164.84,-252"/>
<text text-anchor="middle" x="126.84" y="-230.3" font-family="Times,serif" font-size="14.00">Softmax</text>
</g>
<!-- score&#45;&gt;softmax -->
<g id="edge5" class="edge">
<title>score&#45;&gt;softmax</title>
<path fill="none" stroke="black" d="M151.68,-287.7C147.93,-279.73 143.39,-270.1 139.22,-261.26"/>
<polygon fill="black" stroke="black" points="142.33,-259.66 134.9,-252.1 136,-262.64 142.33,-259.66"/>
</g>
<!-- argmax -->
<g id="node8" class="node">
<title>argmax</title>
<polygon fill="none" stroke="black" points="194.84,-108 122.84,-108 122.84,-72 194.84,-72 194.84,-108"/>
<text text-anchor="middle" x="158.84" y="-86.3" font-family="Times,serif" font-size="14.00">Argmax</text>
</g>
<!-- score&#45;&gt;argmax -->
<g id="edge9" class="edge">
<title>score&#45;&gt;argmax</title>
<path fill="none" stroke="black" d="M171.24,-287.78C189.46,-258.01 221.31,-195.16 202.84,-144 199.09,-133.6 192.31,-123.8 185.17,-115.52"/>
<polygon fill="black" stroke="black" points="187.67,-113.06 178.32,-108.08 182.52,-117.81 187.67,-113.06"/>
</g>
<!-- probs -->
<g id="node7" class="node">
<title>probs</title>
<ellipse fill="none" stroke="black" cx="96.84" cy="-162" rx="96.68" ry="18"/>
<text text-anchor="middle" x="96.84" y="-158.3" font-family="Times,serif" font-size="14.00">Class probabilities</text>
</g>
<!-- softmax&#45;&gt;probs -->
<g id="edge6" class="edge">
<title>softmax&#45;&gt;probs</title>
<path fill="none" stroke="black" d="M119.43,-215.7C116.05,-207.81 111.97,-198.3 108.22,-189.55"/>
<polygon fill="black" stroke="black" points="111.33,-187.92 104.17,-180.1 104.89,-190.67 111.33,-187.92"/>
</g>
<!-- probs&#45;&gt;argmax -->
<g id="edge7" class="edge">
<title>probs&#45;&gt;argmax</title>
<path fill="none" stroke="black" stroke-dasharray="5,2" d="M111.85,-144.05C119.35,-135.58 128.58,-125.17 136.86,-115.82"/>
<polygon fill="black" stroke="black" points="139.53,-118.08 143.54,-108.28 134.29,-113.44 139.53,-118.08"/>
</g>
<!-- class -->
<g id="node9" class="node">
<title>class</title>
<ellipse fill="none" stroke="black" cx="158.84" cy="-18" rx="81.49" ry="18"/>
<text text-anchor="middle" x="158.84" y="-14.3" font-family="Times,serif" font-size="14.00">Predicted class</text>
</g>
<!-- argmax&#45;&gt;class -->
<g id="edge8" class="edge">
<title>argmax&#45;&gt;class</title>
<path fill="none" stroke="black" d="M158.84,-71.7C158.84,-63.98 158.84,-54.71 158.84,-46.11"/>
<polygon fill="black" stroke="black" points="162.34,-46.1 158.84,-36.1 155.34,-46.1 162.34,-46.1"/>
</g>
</g>
</svg>
