<?xml version="1.0" encoding="UTF-8" standalone="no"?>
<svg
   xmlns:dc="http://purl.org/dc/elements/1.1/"
   xmlns:cc="http://creativecommons.org/ns#"
   xmlns:rdf="http://www.w3.org/1999/02/22-rdf-syntax-ns#"
   xmlns:svg="http://www.w3.org/2000/svg"
   xmlns="http://www.w3.org/2000/svg"
   xmlns:sodipodi="http://sodipodi.sourceforge.net/DTD/sodipodi-0.dtd"
   xmlns:inkscape="http://www.inkscape.org/namespaces/inkscape"
   width="240mm"
   height="240mm"
   viewBox="0 0 240 240"
   version="1.1"
   id="svg58"
   inkscape:export-filename="/tmp/favicon.48.png"
   inkscape:export-xdpi="5.0799999"
   inkscape:export-ydpi="5.0799999"
   inkscape:version="1.0.1 (3bc2e813f5, 2020-09-07)"
   sodipodi:docname="favicon.svg">
  <defs
     id="defs52" />
  <sodipodi:namedview
     id="base"
     pagecolor="#ffffff"
     bordercolor="#666666"
     borderopacity="1.0"
     inkscape:pageopacity="0.0"
     inkscape:pageshadow="2"
     inkscape:zoom="0.35"
     inkscape:cx="360.29372"
     inkscape:cy="330.32192"
     inkscape:document-units="mm"
     inkscape:current-layer="layer1"
     inkscape:document-rotation="0"
     showgrid="false"
     fit-margin-top="0"
     fit-margin-left="0"
     fit-margin-right="0"
     fit-margin-bottom="0"
     inkscape:window-width="1920"
     inkscape:window-height="1016"
     inkscape:window-x="0"
     inkscape:window-y="0"
     inkscape:window-maximized="1" />
  <metadata
     id="metadata55">
    <rdf:RDF>
      <cc:Work
         rdf:about="">
        <dc:format>image/svg+xml</dc:format>
        <dc:type
           rdf:resource="http://purl.org/dc/dcmitype/StillImage" />
        <dc:title></dc:title>
      </cc:Work>
    </rdf:RDF>
  </metadata>
  <g
     inkscape:label="Layer 1"
     inkscape:groupmode="layer"
     id="layer1"
     transform="translate(-10.041075,-38.543976)">
    <rect
       style="fill:#ffffff;stroke-width:3.52777;stroke-linecap:round;stroke-linejoin:round"
       id="rect76"
       width="243.94818"
       height="242.47762"
       x="8.0669842"
       y="37.305168"
       ry="56.692799" />
    <g
       id="g52"
       transform="matrix(0.29945587,0,0,0.29945587,-62.657913,-57.406054)">
      <path
         sodipodi:nodetypes="czccsccscssc"
         id="path995"
         d="m 841.37721,873.13197 c 0,0 12.72423,-40.64394 20.25306,-58.50884 7.52883,-17.8649 23.42651,-41.53735 33.7551,-63.00952 28.37931,-49.02403 81.01225,-139.52109 81.01225,-139.52109 0,0 -131.4286,49.70049 -198.02993,72.01088 -65.47135,21.93187 -184.5279,49.50748 -184.5279,49.50748 -43.89837,-16.80339 -88.18136,-37.68143 -128.26938,-56.2585 -23.38705,-10.97146 -46.6756,-22.16149 -69.76055,-33.7551 -36.27824,-18.21948 -108.01632,-56.2585 -108.01632,-56.2585 0,0 15.76123,64.7085 24.75374,96.76462 7.62663,27.18709 15.72082,54.2595 24.75374,81.01225 6.90909,20.4626 36.00544,90.0136 36.00544,90.0136"
         style="fill:none;stroke:#000000;stroke-width:26.5064;stroke-linecap:butt;stroke-linejoin:miter;stroke-miterlimit:4;stroke-dasharray:none;stroke-opacity:1" />
      <path
         sodipodi:nodetypes="ccccc"
         id="path997"
         d="m 382.30782,632.34558 94.51429,-76.51156 c 43.2598,-38.28163 76.6789,-81.22142 112.51701,-126.01905 l 2.25034,40.50612 54.00816,252.03809"
         style="fill:none;stroke:#000000;stroke-width:17.6709;stroke-linecap:butt;stroke-linejoin:bevel;stroke-miterlimit:4;stroke-dasharray:none;stroke-opacity:1" />
      <path
         sodipodi:nodetypes="ccc"
         id="path999"
         d="m 589.33912,429.81497 c 53.45913,64.18233 113.86568,117.48779 175.52652,173.27619 l 69.76056,56.2585"
         style="fill:none;stroke:#000000;stroke-width:17.6709;stroke-linecap:round;stroke-linejoin:round;stroke-miterlimit:4;stroke-dasharray:none;stroke-opacity:1" />
      <path
         sodipodi:nodetypes="ccssccsc"
         id="path1001"
         d="m 274.94066,889.38207 162.02449,-49.50744 c 0,0 48.45717,-18.93497 67.5102,-6.751 17.38722,11.11872 14.15099,22.79954 20.25307,58.50883 3.3565,19.64222 10.31747,28.8931 40.56633,43.91034 66.65026,-4.06171 134.30328,-34.58783 195.71938,-46.16073 50.52009,-9.2476 80.36308,-16.2501 153.02315,-18.00271 44.76184,-1.07969 103.51562,-11.2517 103.51562,-11.2517"
         style="fill:none;stroke:#000000;stroke-width:17.6709;stroke-linecap:butt;stroke-linejoin:miter;stroke-miterlimit:4;stroke-dasharray:none;stroke-opacity:1" />
      <path
         sodipodi:nodetypes="csssssc"
         id="path1003"
         d="m 332.80034,954.14428 c 0,0 46.58283,-24.28658 72.01088,-29.25448 11.04292,-2.1575 25.08651,-7.17332 33.75511,0 12.35425,10.2232 0.39125,33.72918 9.00136,47.25718 10.56127,16.5936 29.09225,28.59292 47.83939,34.54552 34.44579,10.9372 72.58422,3.578 108.41549,-1.1396 80.28552,-10.57042 235.30431,-60.41 235.30431,-60.41"
         style="fill:none;stroke:#000000;stroke-width:17.6709;stroke-linecap:butt;stroke-linejoin:miter;stroke-miterlimit:4;stroke-dasharray:none;stroke-opacity:1" />
    </g>
  </g>
</svg>
